<?xml version="1.0" encoding="utf-8"?>
<!-- Generator: Adobe Illustrator 24.2.3, SVG Export Plug-In . SVG Version: 6.00 Build 0)  -->
<svg version="1.1" id="Capa_1" xmlns="http://www.w3.org/2000/svg" xmlns:xlink="http://www.w3.org/1999/xlink" x="0px" y="0px"
	 viewBox="0 0 644.3 198.9" style="enable-background:new 0 0 644.3 198.9;" xml:space="preserve">
<style type="text/css">
	.st0{fill:#FFFFFF;}
	.st1{fill:#F7A70D;}
	.st2{font-family:'BebasKai';}
	.st3{font-size:42px;}
	.st4{letter-spacing:12;}
</style>
<g>
	<path class="st0" d="M135.1,68.8h-13.3v-9.7h38.7v9.7h-13.2v33.6h-12.2V68.8z"/>
	<path class="st0" d="M195.3,88.6h-24.3c1,3.4,3.9,5.4,8.2,5.4c3.3,0,5.4-0.9,7.7-2.9l6.2,6.4c-3.2,3.6-7.9,5.4-14.3,5.4
		c-11.9,0-19.7-7.4-19.7-17.4c0-10.1,7.8-17.2,18.4-17.2c9.9,0,17.9,6.3,17.9,17.4C195.4,86.6,195.3,87.7,195.3,88.6z M170.7,82.4
		h13.7c-0.6-3.5-3.2-5.7-6.9-5.7C173.9,76.7,171.4,78.9,170.7,82.4z"/>
	<path class="st0" d="M198.8,85.6c0-10.1,8-17.2,19.2-17.2c7.6,0,13.4,3.4,15.7,9.2l-9.1,4.6c-1.6-3.2-4-4.5-6.7-4.5
		c-4.1,0-7.3,2.8-7.3,7.9c0,5.2,3.2,8,7.3,8c2.7,0,5.1-1.4,6.7-4.5l9.1,4.6c-2.3,5.8-8.1,9.2-15.7,9.2
		C206.8,102.9,198.8,95.8,198.8,85.6z"/>
	<path class="st0" d="M273.7,83.2v19.2h-11.7V85.1c0-4.8-2.1-6.9-5.5-6.9c-3.8,0-6.7,2.3-6.7,7.9v16.2H238V56.5h11.7V72
		c2.6-2.4,6.1-3.6,10.1-3.6C267.7,68.3,273.7,72.8,273.7,83.2z"/>
	<path class="st0" d="M316.7,83.2v19.2H305V85.1c0-4.8-2.1-6.9-5.5-6.9c-3.8,0-6.7,2.3-6.7,7.9v16.2H281V68.9h11.2v3.6
		c2.7-2.8,6.4-4.2,10.6-4.2C310.7,68.3,316.7,72.8,316.7,83.2z"/>
	<path class="st0" d="M322.5,85.6c0-10.1,8-17.2,18.9-17.2c11.1,0,18.9,7.2,18.9,17.2c0,10.1-7.8,17.4-18.9,17.4
		C330.4,102.9,322.5,95.7,322.5,85.6z M348.4,85.6c0-5.1-3-7.9-7-7.9c-4,0-7,2.8-7,7.9c0,5.1,3.1,8,7,8
		C345.4,93.6,348.4,90.7,348.4,85.6z"/>
	<path class="st0" d="M363.2,98.5l4-9c3.8,2.5,9.3,4.3,14.3,4.3c5.1,0,7-1.4,7-3.5c0-6.9-24.6-1.9-24.6-17.9c0-7.7,6.3-14,19.2-14
		c5.6,0,11.4,1.3,15.7,3.8l-3.8,9.1c-4.1-2.2-8.2-3.3-12-3.3c-5.1,0-7,1.7-7,3.9c0,6.6,24.5,1.7,24.5,17.6c0,7.5-6.3,14-19.2,14
		C374.4,103.2,367.3,101.3,363.2,98.5z"/>
	<path class="st0" d="M428.8,101c-2,1.3-5.1,1.9-8.2,1.9c-8.6,0-13.6-4.2-13.6-12.8V78.9h-4.9v-8.8h4.9v-8.7h11.7v8.7h7.7v8.8h-7.7
		V90c0,2.5,1.4,3.8,3.5,3.8c1.3,0,2.6-0.4,3.6-1.1L428.8,101z"/>
	<path class="st0" d="M430.2,85.6c0-10.1,8-17.2,18.9-17.2c11.1,0,18.9,7.2,18.9,17.2c0,10.1-7.8,17.4-18.9,17.4
		C438.2,102.9,430.2,95.7,430.2,85.6z M456.2,85.6c0-5.1-3-7.9-7-7.9c-4,0-7,2.8-7,7.9c0,5.1,3.1,8,7,8
		C453.2,93.6,456.2,90.7,456.2,85.6z"/>
	<path class="st0" d="M495.9,68.3v10.6c-1.1-0.1-1.8-0.2-2.7-0.2c-4.8,0-8,2.4-8,8.3v15.4h-11.7V68.9h11.2v4
		C487.1,69.9,491,68.3,495.9,68.3z"/>
	<path class="st0" d="M534.5,88.6h-24.3c1,3.4,3.9,5.4,8.2,5.4c3.3,0,5.4-0.9,7.7-2.9l6.2,6.4c-3.2,3.6-7.9,5.4-14.3,5.4
		c-11.9,0-19.7-7.4-19.7-17.4c0-10.1,7.8-17.2,18.4-17.2c9.9,0,17.9,6.3,17.9,17.4C534.7,86.6,534.6,87.7,534.5,88.6z M510,82.4
		h13.7c-0.6-3.5-3.2-5.7-6.9-5.7C513.2,76.7,510.7,78.9,510,82.4z"/>
	<path class="st1" d="M540.7,59.1h12.2v33.6h20.6v9.7h-32.9V59.1z"/>
	<path class="st1" d="M607.9,94h-18.3l-3.4,8.4h-12.5l19.1-43.3h12.1l19.2,43.3h-12.7L607.9,94z M604.3,84.9l-5.6-13.8l-5.6,13.8
		H604.3z"/>
</g>
<text transform="matrix(1 0 0 1 132.3086 138.9316)" class="st0 st2 st3 st4">Todo en tecnologia</text>
<path class="st0" d="M31.3,60.5c-5.3,0-9.5,4.3-9.5,9.5v42.8c0,5.3,4.3,9.5,9.5,9.5h26.2l-1.6,4.8H45.6c-2.6,0-4.8,2.1-4.8,4.8
	c0,2.6,2.1,4.8,4.8,4.8h38.1c2.6,0,4.8-2.1,4.8-4.8c0-2.6-2.1-4.8-4.8-4.8H73.4l-1.6-4.8H98c5.3,0,9.5-4.3,9.5-9.5V70
	c0-5.3-4.3-9.5-9.5-9.5H31.3z M98,70v42.8H31.3V70H98z"/>
</svg>
